# xmcd CD database file
#
# Track frame offsets:
#	150
#	27081
#	41037
#	69693
#	102399
#	119355
#	151836
#	172092
#	176517
#	200148
#
# Disc length: 3207 seconds
#
# Revision: 0
# Processed by: cddbd v1.5.2PL0 Copyright (c) Steve Scherf et al.
# Submitted via: CDex 1.70beta2
#
DISCID=8b0c850a
DTITLE=Alex JACQUEMIN - Story of...
DYEAR=1900
DGENRE=Jazz
TTITLE0=Story of...
TTITLE1=Bogalou
TTITLE2=La clef
TTITLE3=Bad crib
TTITLE4=For swing only
TTITLE5=Criterium
TTITLE6=Macalan
TTITLE7=Introduction
TTITLE8=Passadou
TTITLE9=Good crib
EXTD=
EXTT0=
EXTT1=
EXTT2=
EXTT3=
EXTT4=
EXTT5=
EXTT6=
EXTT7=
EXTT8=
EXTT9=
PLAYORDER=
